<svg width="196" height="102" viewBox="0 0 196 102" fill="none" xmlns="http://www.w3.org/2000/svg">
<path d="M15.3911 49.5506C11.7537 49.2813 8.40343 49.0689 5.00704 48.7591C4.06079 48.6727 2.46872 48.6892 2.09099 47.9979C1.67497 47.2364 3.34177 47.3122 4.43105 47.3526C10.299 47.57 16.22 47.8692 22.0947 48.0962C39.8293 48.7817 57.1152 48.8587 74.2624 48.7348C96.8635 48.5715 118.505 47.3256 140.414 46.3779C151.99 45.8771 163.273 45.0375 175.374 45.1332C178.649 45.16 182.096 45.4387 185.621 45.9615C191.601 46.8432 195.151 49.1031 194.847 51.8884C194.687 53.3633 194.785 54.9348 192.8 55.8459C191.713 56.3454 190.674 56.6915 188.659 55.5388C186.95 54.5608 185.149 54.487 183.14 54.2028C175.918 53.1813 169.87 53.8791 164.403 54.533C157.421 55.3683 150.106 55.9113 142.964 56.5393C134.596 57.2754 125.868 57.743 117.1 58.1283C106.225 58.607 94.8301 58.4514 84.0334 59.0217C80.8417 59.1902 77.242 59.3725 73.1718 58.3308C73.1096 58.3169 73.0479 58.31 72.9915 58.3107C72.9352 58.3115 72.8859 58.3199 72.8475 58.3352C70.8099 59.961 64.7649 57.2073 62.687 58.8263C62.4694 58.9955 61.6481 59.0671 61.1883 58.9381C55.347 57.2986 50.9681 58.5183 45.5144 57.6728C43.5541 57.3689 41.3885 57.1823 40.2093 57.9303C39.9973 58.0651 39.4061 58.1464 39.0246 58.0517C33.8577 56.7699 29.6497 57.8369 24.4564 56.467C24.2742 56.4146 24.0879 56.3789 23.9085 56.3622C23.7292 56.3454 23.5604 56.3478 23.4123 56.3694C20.0573 57.5089 14.6203 54.5872 10.9553 55.4259C9.77801 55.6954 4.89298 52.82 5.32806 51.9613C5.77903 51.0702 5.18484 50.9764 3.72523 50.7317C2.87277 50.5888 1.83899 50.4298 1.73768 49.8284C1.6286 49.1783 2.72248 49.3528 3.69197 49.4221C7.09929 49.6656 10.4894 49.8768 13.8754 50.0819C14.5462 50.123 15.3441 50.2098 15.3911 49.5506Z" fill="#F7CF6A"/>
</svg>
